<svg width="1003" height="521" viewBox="0 0 1003 521" xmlns="http://www.w3.org/2000/svg"><title>Group 10</title><defs><linearGradient x1="91.47%" y1="12.55%" x2="11.03%" y2="41.36%" id="a"><stop stop-color="#43C0A7" offset="0%"/><stop stop-color="#08B5E5" offset="100%"/></linearGradient></defs><g transform="translate(1 1)" fill="none" fill-rule="evenodd"><path d="M42.7 76.95l4.64-19.23 15.94 12.15-20.57 7.08zm92.85 164.5l12.1 9.45 1.9-4.55-14-4.9zm12.1 9.45l12.3 3-10.4-7.55-1.9 4.55zm-12.1-16.67v7.2l20.87-4.36-20.87-2.84zm0 7.2l14 4.92 6.87-9.28-20.87 4.37zm-31.68-22.57l31.68 15.37-6.56-15-25.13-.37zm31.68 15.37l20.87 2.84-8.14-4.1-12.73 1.26zm12.73-1.26l8.14 4.1-1.65-15.6-6.5 11.5zm6.5-11.5l1.64 15.6 7.77-15.6h-9.43zm1.64 15.6l-6.88 9.28 4.6-2.5 2.28-6.78zm29.7-30.07l-5.9-19.14 9.14 14.7-3.25 4.44zm-36.58 39.35l10.4 7.56 12.52-7.73-22.92.18zm19.22 16.13l-8.8-8.57 12.5-7.73-3.7 16.3zm-19.22-16.13l4.6-2.5 18.32 2.32-22.92.18zm30.68-58.5l9.14 14.72v-20.52l-9.14 5.8zm79.33-78.9l-9.93 20.8 2.2-35.93 7.73 15.13zm26.8-106.38l11.85 9.32 30.76-8.22-42.62-1.1zm36.33 55.35l13.95 14.78L350.45 54l-27.77 3.92zm7.23-51.7l33.2-3.65-33.2 20.57V6.2zm20.55 47.77L329.9 23.13l1.86 23.16 18.7 7.7zM329.9 6.2v16.94l-25-7.07 25-9.86zm38.06 45.02l33.43-15.55-24.67-11.9-8.77 27.45zM84.23 77.77l7.4 38.38 26-28.75-33.4-9.63zm57.5 113l38.5-2.9-26.12-33.63-12.36 36.53zm38.5-2.9l9.13-5.82-35.25-27.8 26.12 33.6zm9.13-5.82L211 165.17l-56.9-10.93 35.26 27.8zM70.58 169.67l21.06-53.52-22.52 30.06 1.46 23.47zm0 0l21.06-53.52 24.13 22.03-45.2 31.5zm21.06-53.52l25.98-28.75-1.85 50.78-24.13-22.03zm25.98-28.75l32.16 24.43-34 26.35 1.84-50.78zm173.15 18.12l3.95 17-16.67-4.2 12.72-12.8zm-141 6.3l4.34 42.42-38.33-16.06 34-26.35zM350.46 54L329.9 23.13l31.37 7.7L350.45 54zm0 0l17.5-2.78-6.68-20.37L350.45 54zM329.9 23.13l33.2-20.57-1.83 28.28-31.36-7.7zm33.2-20.57l13.63 21.2-15.46 7.08 1.82-28.28zm4.86 48.65l8.77-27.44-15.46 7.07 6.7 20.37zM363.1 2.57l13.63 21.2L394.67 0 363.1 2.57zm13.63 21.2L394.67 0l13.83 16.7-31.77 7.08zm0 0l24.66 11.9 7.1-18.96-31.77 7.08zM394.67 0l36.87 5.14L408.5 16.7 394.67 0zm-62.9 46.3l18.68 7.7-27.77 3.92 9.08-11.62zM192.8 27l-16.7-.65-12.23 5.06L192.8 27zm-12.23 5.75l34.45-4.54-6.6 14.22-27.85-9.67zm7.84-12.7l33.18 3.1-18.94 1.76-14.23-4.84zm12.12 53.42l29-16.3-11.8-9.66-17.2 25.97zm21.92-38.6l3.96-6 9-.66-12.96 6.67zm-4.72 12.64l11.8 9.66 1.27-21.85-13.08 12.2zm24.67-27.44l-5.4 3.72-7.9-3.72h13.3zM230.8 35.3l-1.3 21.86 11.8-7.5-10.5-14.35zm9.7-8.3h9.77L237 32.75l3.5-5.75zm9.12 4.4l21.06 6.1-21.06 1.04V31.4zm0 0l21.06 6.1 7.37-8.62-28.43 2.53zm2.75-6.58h25.68l-9.23-3.05-16.45 3.05zm4.4 15.75l-15.47 9.08 11.9 1.12 3.57-10.2zm16.82-22.45l12.74-15.55-22.5 6.3 9.75 9.25zm-2.92 19.38l7.37-8.62V48.2l-7.37-10.7zm7.37-8.62V48.2l10.56-13.33-10.55-6zm-4.46-10.76l12.74-15.55-1.06 16.4-11.7-.85zm4.45 30.08l6.1-2.9 4.46-10.43-10.55 13.33zm8.3-45.63l11.85 9.32-12.92 7.06 1.06-16.4zm-2.2 42.74l4.46-10.43 11.67 15.9-16.12-5.46zm0 0l3.1 5.92 13.02-.45-16.12-5.46zm3.1 5.92l7.42 4.05 5.6-4.5-13.02.45zm-28.63 5.9l19.43-8.92 4.7 15.53-24.13-6.6zm19.43-8.92l6.1-2.9-1.4 18.43-4.7-15.53zm6.1-2.9l3.1 5.92-4.5 12.5 1.4-18.4zm-51 16.04l7.8-7.98 6.92 7.44-14.7.54zm35.67 18.94l-4.35-13.76-12.22-1.57 16.57 15.33zm-17 13.54l17-13.54-16.57-15.33-.42 28.87zm0 0l17-13.54 13.92 6.5-30.9 7.04zm17-13.54l13.6-5.1.32 11.6-13.92-6.5zm-26.4 5.81l9.85-21.15-.42 28.87-9.44-7.72zm17.15 22.85l19.48.68-27.2-15.8 7.72 15.12zm19.48.68l14.87-11.3-42.07-4.5 27.2 15.8zm-27.2 25.94l21.7-12.5-12.64 3.12-9.07 9.37zm30.9-48.78l11.17 11.53-42.07-4.5 30.9-7.04zm-40.34-.7l9.43 7.72-30.25 12.12 20.8-19.84zm7.22 43.64l2.2-35.92-30.24 12.12 28.04 23.8zm-132-42.34l30.04-48.84 18.2 42.42-48.24 6.42zm0 0l32.16 24.43 16.08-30.85-48.24 6.42zm82.9-13.93V84.2l-34.66-3.22 34.66-7.5zm-52.86-34.9l18.2 42.4 6.66-34.48-24.86-7.94zm16.2-7.16L192.8 27l-25.7 8.82-3.23-4.4zm2 49.58l34.66-7.5-28-27-6.66 34.5zm14.7-48.23l27.86 9.67-28.65-1.13.8-8.55zm19.96 40.72l17.2-25.96-45.2-1 28 26.97zm-50.74 38.36l4.33 42.4 41.15-28.04-45.47-14.37zm0 0l16.08-30.85 29.4 45.2-45.48-14.35zm4.33 42.4l56.9 10.94-15.75-38.98-41.14 28.04zM165.87 81l34.66 3.2-5.27 42-29.4-45.2zm45.14 84.2l13.1-20.66-28.85-18.33L211 165.16zm-10.48-81l21.06 21.76-26.33 20.25 5.27-42zm0 0l21.06 21.76v-13.3l-21.06-8.45zm21.06 21.76l28.04 23.8-54.37-3.55 26.33-20.26zm2.5 38.58l25.54-14.78-54.37-3.55 28.84 18.32zM0 92.62l42.7-15.67-16.4 2.9L0 92.64zm42.7-15.67l4.64-19.23L26.3 79.86l16.4-2.9zM23.13 66.52l24.22-8.8L26.3 79.86l-3.2-13.34zm24.22-8.8l15.94 12.15 19.1-14.6-35.04 2.45zm0 0l30.1-21.1 4.93 18.65-35.03 2.45zm0 0l30.1-21.1-25.96 7.2-4.14 13.9zm15.94 12.15l20.95 7.9-1.86-22.5-19.1 14.6zm14.15-33.24l16.76-.32-11.83 18.97-4.94-18.64zm4.94 18.64l1.86 22.5 27.2-14.8-29.06-7.7zm0 0L94.2 36.3 111.43 63l-29.07-7.7zm1.86 22.5l33.4 9.63-6.2-24.42-27.2 14.8zM94.2 36.3l27.13 5.48-9.9 21.2L94.2 36.3zm23.42 51.1l30.04-48.84-36.22 24.42 6.18 24.42zm3.7-45.62l26.34-3.22-36.22 24.42 9.9-21.2zm-5.55 96.4l38.34 16.06-35.84 21.18-2.5-37.24zm-11.9 80.68l25.12.36-10.74-43.8-14.4 43.44zm25.12.36l4.08-16.65-14.82-27.15 10.73 43.8zm4.08-16.65l8.66-11.8-23.48-15.35 14.82 27.15zm79.38 33.3l2.42-2.3-6.3-6.22 3.88 8.52zm2.42-2.3l8.92-.96-15.23-5.25 6.3 6.22zm-60.77-79.33l-12.36 36.53-23.48-15.35 35.85-21.18zm-50.23 64.62l31.68 15.37-6.56 10.4-25.13-25.77zm31.68 15.37v7.2l-6.56 3.2 6.55-10.4zm-6.56 10.4l-25.13-25.77-.8 9.8L129 244.64zm-25.13-25.77l14.4-43.44-29.12 7.9 14.72 35.54zm0 0L89.15 192.3v-8.98l14.72 35.54zm-33.3-49.2l8.9 27.32 2.05-16.27-10.94-11.03zm0 0l45.2-31.48-34.25 42.53-10.94-11.03zm8.9 27.32l12.17 18.83-10.12-35.1L79.47 197zm9.68-13.66l29.1-7.9-36.73 5.3 7.63 2.6zm26.62-45.14l2.5 37.24-36.75 5.3 34.25-42.54zM185 214.86l20.23 11.97h-8.98L185 214.86zm0 0l-8.98.58 2.22 1.68 6.76-2.26zm0 0l11.25 11.97-18-9.7 6.75-2.27zm-8.98.58l-5.05 5.06 7.27-3.38-2.22-1.68zm-16.07 38.47l4.24 12.54 4.56-3.96-8.8-8.57zm8.8 8.58l-4.56 3.96 11.86 8.96-7.3-12.92zm0 0l7.3 8.83v4.1l-7.3-12.92zm16.7 5.06l-9.4 3.77v4.1l9.4-7.86zm0 0l-.33 2.66-9.06 5.2 9.38-7.86zm0 0l-.33 2.66 4.25 7.9-3.93-10.56zm0 0l6 5.28-2.08 5.27-3.93-10.56zm74.1-158.6l-9.93 20.8 9.93-3.28v-17.5zm570.93 305.4l-12.96-23 45.6 8.07-32.64 14.95zm0 0l32.65-14.93v28.7l-32.65-13.75zm32.65-14.93v28.7l41.9-16.2-41.9-12.5zm80.4 83.24l6.52 6.67 27.5-25.73-34 19.07zm-38.5-70.75l34.98 5.27 1.53-12.23-36.5 6.95zm-41.9-12.5l41.9 12.5 2.8-37.06-44.7 24.57zm41.9 12.5l36.5-6.96-33.7-30.1-2.8 37.05zm12.86-63.45l23.63 56.5-33.7-30.1 10.06-26.4zm-44.1 14.66l-10.67 36.3 29.26-36-18.6-.3zm-10.67 36.3l44.7-24.56-15.44-11.44-29.27 36zm80.4-53.8l-22.16-29.02-7.2 24.3 29.37 4.7zm-69.73 17.5l18.6.3-13.16-10.15-5.44 9.86zm18.6.3l6.27-11.7-19.43 1.55 13.15 10.15zm-74.88 27.94l45.6 8.07-19.4-18.1-26.2 10.04zm56.28-28.23l-10.67 36.3-19.42-18.1 30.1-18.2zm29.78 99.8l-14.92 15.52 1.6-13.1 13.32-2.4zm-29.78-99.8l-12.32-1.9-17.77 20.1 30.1-18.2zm-10.67 65l51.7 23.3 10.68-14.26-62.37-9.04zm86.92 61.2l28.3-20.2-.8-5.53-27.5 25.74zm-86.92-61.2l41.9-16.2 20.48 25.24-62.37-9.04zm41.9-16.2L940 417.2l-14.5 19.97-20.48-25.25zm-74.55 2.45l-12.96-23-5.65 50.7 18.6-27.7zm158.8 39.8l10.72 1.6-18.72 12.72 8-14.33zm0 0l10.72 1.6-8.7-16-2.02 14.4zm-158.8-39.8l32.65 13.75-51.26 13.96 18.6-27.7zm32.65 13.75l51.7 23.3-27.9 4.45-23.8-27.75zM424.2 265.5l25.96-76.43-57.47 29.84 31.5 46.6zm0 0l23.14 17.97-26.23 4.5 3.1-22.48zm87.75 78.98l40.17-5.78 6.18-37.9-46.35 43.68zm-33.32-55l-1.02 23.17 65.25-34.96-64.22 11.78zm-1.02 23.17l34.35 31.83 30.9-66.8-65.24 34.97zm34.35 31.83l46.35-43.67-15.45-23.1-30.9 66.78zm30.9-66.8l15.45 23.13v-46.23l-15.45 23.12zm15.45-23.1l18.24-9-9.06-24.64-9.18 33.63zm-10.4-71.7l6.07 11.97h-32.13l26.05-11.96zm0 0l6.07 11.97 4.3-12.64-10.38.7zm11.2 12.36l-5.13-.4 4.3-12.63.82 13.04zm-5.13-.4l13.5 26.1-45.63-26.1h32.13zm4.33 59.73l9.18-33.63-45.64-26.1 36.46 59.73zm-36.46-59.72l26.05-11.96-33.46-5.3 7.4 17.25zm-7.4-17.25l7.4 17.25-12.37-7.58 4.97-9.67zm-64.28 11.47l-7.1-21.38L431 164l19.16 25.05zM392.7 218.9l57.46-29.83-35.43 2.12-22.04 27.7zm38.3-54.88l19.16 25.05-35.43 2.12L431 164zm-38.3 54.9l31.5 46.57-31.5-14.14V218.9zm14.82 47.2l16.68-.63-31.5-14.14 14.82 14.77zm-14.83-14.76l14.82 14.77-2.47 9.1-12.36-23.87zm14.82 14.77l16.68-.64-19.15 9.74 2.47-9.1zm13.6 21.84l3.08-22.48-19.15 9.74 16.06 12.73zm57.5 1.5l64.23-11.78-49.44-40.47-14.77 52.25zm6.73-113.9l24.12 11.7-16.06 49.96-8.05-61.65zm24.12 11.7l12.37 7.58-28.43 42.38 16.07-49.96zm12.37 7.58l36.46 59.72-64.9-17.34 28.44-42.38zm21 82.84l15.46-23.13-64.9-17.34 49.45 40.46zM424.2 265.5l23.14 17.97 46.07-46.24-69.2 28.26zm0 0l25.96-76.43 43.25 48.16-69.2 28.26zm23.14 17.97l31.3 6 14.77-52.24-46.06 46.24zm2.82-94.4l35.2-13.5 8.05 61.66-43.24-48.16zm108.14 65.5l18.24-9 11.32 9.24-29.56-.23zm0 46.24v-46.23l34.34 10.33-34.34 35.9zm0-46.23l29.56.24 4.78 10.1-34.34-10.33zm0 46.24l34.34-35.9 10.13 27.56-44.47 8.35zm34.34-35.9l23.7-4.62-13.57 32.18-10.13-27.56zm-40.52 73.8l6.18-37.9 18.54 21.85-24.72 16.05zm6.18-37.9l44.47-8.34-25.93 30.2-18.54-21.85zm18.54 21.85l4.46 41.43-29.18-25.38 24.72-16.05zm-24.72 16.05l29.18 25.38-19.9 19.72-9.28-45.1zM509.8 441.66l22.24-3.18-27.5-31.7 5.25 34.88zm22.24-3.18l20.08-21.68-47.58-10.02 27.5 31.7zm20.08-21.68l.62-11.9-48.2 1.88 47.58 10.02zm-57.54-24.15l9.96 14.13 19.15-39.82-29.12 25.7zm0 0l17.37-48.17 11.74 22.48-29.12 25.7zm9.96 14.13l48.2-1.9-29.05-37.92-19.16 39.82zm7.4-62.3l40.18-5.78-28.43 28.26-11.75-22.48zm49.45 39.32l-37.7-16.84 28.42-28.26 9.27 45.1zm-8.66 21.1l9.5-4.26-38.55-33.68 29.04 37.93zm9.5-4.26l-.85-16.84-37.7-16.84 38.54 33.68zm-84.63-88l34.35 31.84-19.42 4.3-14.92-36.13zm14.93 36.14l19.42-4.3-26.78 29.6 7.36-25.3zm2.05 43.87l17.37-48.17-26.78 29.6 9.4 18.57zm0 0l9.96 14.13-7.7 5.34-2.26-19.47zm9.96 14.13l5.25 34.88-12.97-29.54 7.7-5.34zm84.3-5.12l4.4-32.13 12.7 15.9-17.1 16.23zm0 0l10.16 1.96 6.95-18.2-17.12 16.24zm4.4-32.13l12.7 15.9-4.62-15.9h-8.07zm0 0l18.7-14-10.62 14h-8.07zm12.7 15.9l6-29.9-10.62 14 4.63 15.9zM450.17 189.07l35.2-13.5-4.56-15.56-30.64 29.07zm0 0L480.8 160l-37.73 7.7 7.1 21.37zm27.45 123.58l34.35 31.83 30.9-66.8-65.24 34.97zM431 164.02l19.16 25.05-35.43 2.12L431 164zm16.34 119.45l31.3 6 14.77-52.24-46.06 46.24zm2.82-94.4l35.2-13.5 8.05 61.66-43.24-48.16zM552.12 338.7l29.18 25.38-19.9 19.72-9.28-45.1zm10.12 61.94l-.85-16.84-37.7-16.84 38.54 33.68zM450.16 189.07L480.8 160l-37.73 7.7 7.1 21.37zM177.5 328.87l40.02 48.15-20-13.48-20.02-34.67zm46.67 137.62l10.74 31.92 14.7-14.6-25.43-17.33zm10.74 31.92l16.83 9.1-2.12-23.7-14.7 14.6zm16.83 9.1l-2.12-23.7 7.36 6.3-5.23 17.4zm38.5-101.3L314 390.7l5.6-35.53-29.37 51zM276.9 289l3.13 18-22.5-24.9 19.37 6.9zm-19.37-6.9l19.37 6.9-10.47-7.12-8.9.22zm-68.16-4.03l18.46-19.53 1.13 47.8-19.6-28.28zM217.52 377l1.77 47.8 34.77-4.76L217.51 377zm41.42 80.73l8.97-15.53-13.83-22.16 4.87 37.7zm0 0l8.97-15.53 2.1 11.88-11.06 3.65zm8.97-15.53h9.83l-23.66-22.16 13.84 22.16zM217.53 377l36.55 43.04 11.12-38.84-47.68-4.2zm0 0l37.17-27.62 10.5 31.82-47.68-4.2zm36.55 43.04l23.66 22.16-12.54-61-11.13 38.84zm23.66 22.16l12.5-36-25.04-25 12.53 61zm12.5-36l29.36-51.03-54.4 26.02 25.03 25zM177.5 309.6v19.25l30.84 15.4-30.84-34.66zm0 0l31.46-3.25-.62 37.9-30.84-34.66zm0 19.25L217.52 377l-9.18-32.75-30.84-15.4zm31.46-22.5l45.73 43.03-46.36-5.13.62-37.9zm8.56 70.65l37.17-27.62-46.36-5.13 9.18 32.75zm17.4 121.4l16.8 9.1-3.83 6.8-13-15.9zm16.8 9.1L270 518.35l-22.1-4.03 3.83-6.82zm-32.43-82.7l4.87 41.67 15.07-29.74-19.95-11.94zm0 0l34.77-4.76-14.83 16.7-19.95-11.94zm4.87 41.67l25.44 17.32-10.36-47.06-15.07 29.73zm25.44 17.32l9.34-26.07-19.7-21 10.37 47.07zm4.47-63.76l4.87 37.7-19.7-21 14.83-16.7zm-46.24-161.5l1.13 47.8 25.34-14.12-26.47-33.67zm0 0l11.02 2.37 15.45 31.3-26.47-33.66zm1.13 47.8l45.73 43.04-20.4-57.16-25.34 14.13zm9.9-45.43l24.1 4.97-8.66 26.34-15.45-31.3zm24.1 4.97l14.57 16.22-23.23 10.12 8.65-26.34zm11.73 83.5l25.33-42.4-45.73-14.76 20.4 57.16zm2.83-67.28l22.5 24.9-45.73-14.78 23.23-10.12zm-2.84 67.28l10.5 31.82 38.94-54.3-49.45 22.48zm0 0l25.33-42.4 24.1 19.92-49.44 22.48zm10.5 31.82l54.4-26.03-15.46-28.28-38.95 54.3zm14.83-74.2l16.07 3.85 8.04 16.05-24.1-19.9zm16.07 3.85l33.28 14.06-25.24 2-8.04-16.06zm23.5 44.32l11.72-18.72-27.18-9.56 15.45 28.27zm9.78-30.27l1.94 11.55-27.18-9.56 25.24-2zM177.5 309.6l31.46-3.23-18.82-14.53-12.64 17.77zm11.87-31.5l19.6 28.27-18.83-14.53-.77-13.75zm18.46-19.53l-18.46 19.52 2.1-5.28 16.36-14.25zm353.88-128.6l1.43-9.04 11.53 17.22-12.95-8.17zm-18.1 14.94l10.96-4.16-3.03 23.92-7.92-19.75zm-10.5 14.7l-3.74-13.17 22.17 18.23-18.43-5.07zm18.43 5.06l-22.17-18.23 14.25-1.52 7.93 19.76zm0 0l3.03-23.92 11.26 5.2-14.3 18.72zm0 0l14.3-18.7-4.12 15.2-10.17 3.5zm14.3-18.7l10.4-1.75-14.52 16.96 4.12-15.2zm3.47 63.9l17.65 29.16 29.1-26.77-46.75-2.38zm54.87 32.55l-32.45 13.08-4.77-16.46 37.22 3.4zm0 0l-8.12-30.15-29.1 26.77 37.22 3.4zm0 0l17.97-24.1-26.1-6.05 8.13 30.16zm8.13-31.1l9.84 7-26.1-6.05 16.26-.94zm0 0l-2.56-7.3-13.7 8.25 16.26-.94zm-63-1.43l46.75 2.38-31.8-13.47-14.95 11.1zm-11.02-27.66l3.43-21.04 42.14 25.75-45.56-4.7zm0 0l11.02 27.67 14.95-11.1-25.97-16.56zm0 0l25.97 16.58 19.6-11.87-45.57-4.7zm45.56 4.7l-19.6 11.88 19.6-1.67v-10.2zm-19.6 11.88l31.8 13.47-12.2-15.14-19.6 1.68zm38.95 2.26l6.54-2.26-17.53-3.93 11 6.2zm-11-6.2l17.54 3.94-.6-10.4-16.93 6.47zm17.54 3.94l-.6-10.4 33.4 17.46-32.8-7.06zm0 0l3.8 5.7 29 1.36-32.8-7.06zM678 224.54l-15.47-18.7 16.3-4.8-.84 23.5zm5.36-1.8l15.08 14.07 14.18-35.76-29.26 21.7zm89.3 33.7l-6.24-17.14 10.35 13.96-4.12 3.17zm0 0l4.1-3.18-4.1 19.82v-16.65zm-60.86 20.7v-9.98l7.87 10.87-7.87-.9zm60.85-4.06l17.3 20.5-13.5-21.87-3.8 1.38zm17.3 12.3v8.2l-13.5-21.87 13.5 13.7zm-17.3-12.3l4.12-19.82-.33 18.45-3.8 1.38zm-6.23-33.78l10.35 13.96 6.86-3.24-17.2-10.72zm10.35 13.96l6.86-3.24 10 15.1-16.86-11.86zm17.16 19.33l-.3-7.5 13.6-3.97-13.3 11.46zM783.63 250l10 15.1 8.73-22.83-18.73 7.72zm10 15.1l13.6-4-4.87-18.83-8.74 22.8zm-27.2-25.82l17.2 10.72 7.1-18.5-24.3 7.78zm88.16 34.96l8.22 9.05-3.65-25.84-4.58 16.8zm-14.17-32.03l18.74 15.23-15.77-25.2-2.97 9.97zm-56.8 7.8l18.73-7.74-11.62-10.8-7.1 18.52zm-17.2-10.73l24.3-7.8-43.63-11.2 19.32 19zm24.3-7.8l-43.63-11.2 53.33-.48-9.7 11.7zm18.5-10.35l-2 4.75-6.8-6.08 8.8 1.33zm0 0l-8.8-1.33 25.5-4.6-16.7 5.93zm-6.87 21.14l4.87 18.83-.62-11.1-4.24-7.74zm23.56-27.08l11.94-23.1-16.65-24.24 4.72 47.34zm-4.7-47.34l8.33-8.22-17.83-5.4 9.5 13.62zm2.37-14.3l-2.96-8.45 7.8 3.72-4.85 4.74zm-2.4 14.3l16.66 24.25-3.97-11.97-12.7-12.28zm13.23-16.42l7.06 6.48-5.83-1.63-1.24-4.84zm7.06 6.48l4.56 11.93 8.5-3.94-13.07-8zm-13.07-9.1l6 2.62 5.52-.83-11.52-1.78zm6 2.62l7.06 6.48-1.55-7.3-5.52.82zm7.06 6.48l13.06 8-14.6-15.3 1.53 7.3zm-20.86-12.8l7.8 3.7 16.7-12.1-24.5 8.4zm7.8 3.7l11.5 1.8 5.2-13.9-16.7 12.1zm11.5 1.8l4.9-5.07.3-8.82-5.2 13.88zm5.2-13.9l9.25.73 4.77-20.92-14.04 20.2zm0 0l14.03-20.2-6.16-12.5-7.87 32.7zm0 0l7.87-32.7-8.6-8.33.73 41.05zm-10.9-61.08l28.88.85 1.43-9.04-30.3 8.2zm48.9-10.06l-1.74-12.26 7.9 19.46-6.16-7.2zm0 0l6.15 7.2-9.88 14.04 3.73-21.24zm-3.73 21.24l21.66 20.38-.8-20.38h-20.86zm0 0l9.88-14.04.9 8.73-10.78 5.3zm0 0h20.86l-10.1-5.3-10.76 5.3zm2-33.5l7.88 19.46 5.25-18.5-13.14-.96zm7.88 19.46l30-7.2-24.75-11.3-5.25 18.5zm-7.9-19.46l13.15.97V41.94L881.36 53.3zm13.15.97l36.88 4.1-36.88-16.43v12.33zm-30 13.16l16.86-14.13 1.76 12.26-18.6 1.87zm0 0l12.1 3.53 6.52-5.4-18.6 1.87zm-30.3 8.2l30.3-8.2-22.4-26.34-7.88 34.52zm30.3-8.2l16.86-14.13-39.28-12.2 22.43 26.33zm16.86-14.13l13.14-11.36-52.42-.83 39.28 12.2zM834.2 75.62l7.88-34.5-9.52-4.58 1.64 39.08zm-49.32-45.54l47.68 6.46-43.93-.62-3.75-5.84zm0 0l3.75 5.84H762.4l22.48-5.84zm-35.56-2.34l13.1 8.18-24.36-5.84 11.26-2.34zM710.2 20.4l-3.47 7.34-27.35-10.63 30.82 3.3zM653.78 24l25.6-6.9-23.72 14.93-1.88-8.02zm-68.1-3.4l23.34-2.23-23.34 12.47V20.6zm68.1 3.4l1.88 8.03-27.16 1.6L653.78 24zm-35.58 3.74l10.3 5.88-5.93 11.44-4.37-17.32zm4.37 17.32l-4.37-17.32-4.38 8.18 8.75 9.14zm-96.22-5.7l30.53 8.24-18.9 3.57-11.63-11.8zm3.33 15.37l17.1 4.67-8.8-8.23-8.3 3.56zm24.8-2.6l2.4-4.53-18.9 3.57 16.5.97zm-28.13-12.76l11.62 11.8-10.9-.98-.72-10.83zm3.33 15.36l8.3-3.56-10.92-.98 2.62 4.53zm0 0l17.1 4.67-11.6 4.67-5.5-9.34zm73.5-9.67h19.4l-21.3 75.87 1.9-75.87zm0 0h19.4l-26.8-6.55 7.4 6.56zm59.35 160.78l16.3-4.8-24.42-73.97 8.13 78.77zM628.5 33.62l27.16-1.6 12.48 27.9-39.64-26.3zm27.16-1.6l23.72-14.9-11.24 42.8-12.48-27.9zm23.72-14.9l27.35 10.62-38.6 32.18 11.25-42.8zM654.4 127.06l24.43 73.97 48.62-39.26-73.04-34.7zm24.43 73.97h33.8l14.82-39.26-48.62 39.26zm33.8 0l18.1 21.15-3.28-60.42-14.83 39.26zm-58.22-73.97l73.05 34.7-31.22-50.6-41.82 15.9zm73.05 34.7l14.36-51.24-45.57.65 31.22 50.6zm78.85 72.9l3.6-7.34-8.7 2.46 5.1 4.87zm-78.85-72.9l14.36-51.24 32.47 31.14-46.82 20.1zm-126.17-40.84l21.3-75.87 30.58 28.5-51.88 47.37zm0 0l53.13 6.14-1.24-53.52-51.88 47.38zM871 125.7l-2.94-12.4-16.27-17.24L871 125.7zM622.57 45.06l5.93-11.44 24.66 39.93-30.6-28.5zm5.93-11.44l39.64 26.3-14.98 13.63-24.66-39.93zm25.9 93.45l41.83-15.9-43.07-37.62 1.25 53.52zm13.74-67.15l28.1 51.26-43.08-37.63 14.98-13.63zm73.67 50.6l20.6-74.6 22.48 30.5-43.07 44.1zm0 0l32.47 31.15 10.6-75.26-43.06 44.13zm140.47 196.82l31.9 33.53 7.2-24.3-39.1-9.23zM762.4 35.92h26.23l-3.75 30.5-22.47-30.5zm26.23 0l43.93.62-47.68 29.87 3.75-30.48zm5.75-12.75l-20.9 2.58 3.9-5.15 17 2.57zm-20.9 2.58L757.8 21.3l19.57-.7-3.9 5.15zm59.08 10.8l1.64 39.07-49.32-9.2 47.68-29.88zm-5.3 55.8l6.94-16.73-49.32-9.2 42.4 25.94zM555.93 54.74l25.45-10.38 3.75 29.2-29.2-18.82zm25.45-10.38l21.8.7-18.05 28.5-3.75-29.2zm19.9 76.58l1.9-75.87-18.05 28.5 16.16 47.37zm66.87-61l28.1 51.25 11.86-28.55-39.96-22.7zm0 0l38.6-32.2 1.36 54.9-39.96-22.7zm28.1 51.25l45.57-.65-33.7-27.9-11.87 28.55zm125.03 228.17l46.17-1.44-44.48-6.1-1.7 7.55zm-27.65-10.3l5.15-11.3-20.2-11.3 15.05 22.6zm61.84-20.43l-11.1-2.03 11.1 17.06v-15.04zm-34.2 30.73l1.7-7.56-26.32-.2 24.63 7.75zm20.4-11.24l2.7-21.5 11.1 17.06-13.8 4.45zM763 283.9l15.57 22.56 4.98-9.44L763 283.9zm15.57 22.56l20.2 11.3L783.55 297l-4.98 9.44zM706.73 27.74l31.33 2.34-29.96 52.55-1.37-54.9zm31.33 2.34l24.35 5.84-54.3 46.7 29.96-52.54zm-91.03-22l9.1-2.3 5.77 6.8-14.87-4.5zm14.87 4.5l-5.77-6.8 25.06 6.8h-19.3zm79.9 97.95l20.6-74.6-54.3 46.7 33.7 27.9zM603.85 186.9l8.37 7.95 4.43-33.37-12.8 25.43zm8.37 7.95l16.93-6.47-12.5-26.9-4.42 33.37zm16.93-6.47l33.4 17.46-45.9-44.36 12.5 26.9zm33.4 17.46l-8.12-78.77-37.77 34.4 45.9 44.37zm-87.87-67.7l1.58 6.07 24.45 1.76-26.04-7.8zm26.62-17.2l53.13 6.13-38.35 17.84-14.77-23.97zm15.35 40.54l37.78-34.4-38.35 17.83.58 16.58zM585.68 20.6L576.04 33l9.64-2.16V20.6zm0 10.24L576.04 33l16.57 4.98-6.92-7.14zM873.3 141.6l14.6-5.12-16.23-7.28 1.63 12.4zM585.12 73.55l16.16 47.38-21.3-22.8 5.14-24.58zm-58.06 2.77l8.1-12.25 11.63-4.67-19.74 16.92zm30.6 5L546.78 59.4l-1.3 43.28 12.15-21.35zM545.5 102.7l21.62 9.8-9.47-31.15-12.15 21.35zm1.3-43.28l9.12-4.67 1.73 26.6L546.8 59.4zm9.12-4.67l29.2 18.82-27.47 7.78-1.73-26.6zm11.2 57.76l12.86-14.37-22.33-16.8 9.47 31.16zm18-38.95l-5.14 24.58-22.33-16.8 27.47-7.78zM841.5 206.3l-1.04 14.33-3.92-8.08 4.95-6.25zm-67.23-64.63l10.6-75.26 26.85 51.9-37.45 23.37zm0 0l37.45 12.58V118.3l-37.45 23.37zm10.6-75.26l42.4 25.96-15.55 25.95-26.84-51.9zm26.85 87.85l8.92-9.12-8.92-26.82v35.95zm8.92-9.12l24.5-8.38-33.42-18.44 8.92 26.83zm6.63-52.77l17.13 3.35-32.68 22.6 15.55-25.94zm17.13 3.35l.73 41.05-33.4-18.44 32.67-22.6zM727.45 161.8l3.3 60.4 42.06-38.52-45.35-21.88zm0 0l46.82-20.1-1.46 41.98-45.35-21.88zm150.25-17.53l-2.24 18.42 12.48 5.9-10.24-24.32zm-2.24 18.42l-16.8 10.1 29.28-4.2-12.48-5.9zm-16.8 10.1l9.4 3.4 19.88-7.6-29.28 4.2zm19.04-28.52l10.24 24.3-3.36-18.6-6.88-5.7zm-14.34 39.4l4.7-7.5-9.4-3.37 4.7 10.88zM730.74 222.2l16.36-1.9 25.7-36.64-42.06 38.53zm43.53-80.53l37.45 12.58-38.9 29.4 1.45-41.98zM747.1 220.3l53.33-.48-27.62-36.16-25.7 36.63zm53.33-.48l25.5-4.6-53.12-31.56 27.63 36.16zm11.3-65.57l9.48 13.63-48.4 15.78 38.92-29.4zm9.48 13.63l4.72 47.34-53.1-31.56 48.4-15.78zM698.45 236.8l14.18-35.76-1.87 43.4-12.3-7.63zm14.18-35.76l18.12 21.15-20 22.25 1.88-43.4zm-29.26 21.7l17.4 50.96-2.32-36.9-15.08-14.05zm17.4 50.96l10-9.57-12.32-27.32 2.32 36.9zm10-29.25v19.68l-12.32-27.32 12.3 7.65zM563.12 120.93l11.53 17.22 14.28-6.84-25.8-10.37zm4-8.44l12.85-14.37 8.96 33.18-21.82-18.8zm7.53 25.65l26.03 7.8-11.76-14.64-14.28 6.85zm5.32-40.02l21.3 22.8-12.34 10.38-8.96-33.17zm-18.27 63.03l14.54-16.95 23.23 14.34-37.76 2.62zm0 0l42.14 25.75-4.37-28.36-37.76 2.62zm14.54-16.95l24.45 1.76-1.23 12.58-23.23-14.33zm27.6 42.7l12.8-25.42-17.17-2.94 4.37 28.37zM527.06 76.33L546.8 59.4l-16.6 28.78-3.14-11.86zm18.44 26.36l1.3-43.28-16.6 28.78 15.3 14.5zM841.67 284.7l-6.85-6 1.16 12.67 5.7-6.67zm-10.5 36.25l9.9-20.14-5.1-9.43-4.8 29.58zm-21.28-22.03l3.26 17.45 9.8-24.18-13.07 6.72zm24.92-20.2l1.16 12.65-13.02.82 11.86-13.5zm-21.66 37.65l9.8-24.18 13.02-.83-22.82 25zm0 0l18.02 4.58 4.8-29.58-22.82 25zm-283.8-169.94l14.25-1.52-10.5-2.85-3.74 4.38zm59.58-15.12l-21.82-18.8-4 8.43 25.82 10.38zm-30.66 50.9l11.02 27.67-10.2-14.63-.82-13.03zm153.52 94.94l1.23 4.67 6.64-3.77-7.87-.9zm60.85-4.06l10.98 21.48 6.33-1-17.3-20.48zm10.98 21.48l6.33-1 3.2 6.2-9.53-5.2zM616.05 144.9l-14.3-11.98-.47-12 14.77 24zm67.3 77.85l-4.52-21.7h33.8l-29.27 21.7zm0 0l-5.36 1.8.83-23.5 4.53 21.7zm83.07 16.55l-8.18 3-11.14-22 19.32 19zM545.5 102.68l17.63 18.25-10.18 3.8-7.45-22.05zm-18.44-31.23l8.1-7.38-15.85-8.9 7.76 16.28zm0-21.26l2.62 4.53-10.37.44 7.76-4.98zm8.1 13.87l-5.48-9.34-10.37.44 15.87 8.9zm10.34 38.6l7.45 22.05-12.3-.57 4.85-21.47zm0 0l21.62 9.82-4 8.43-17.62-18.25zm-16.14 43.76l3.74-4.38-17.9-27.2 14.16 31.58zm-14.16-31.6l14.16 31.6-12.1-11.38-2.06-20.2zm0 0l25.44 9.32L519 84.58l-3.8 30.26zm15-26.65l15.3 14.5-26.5-18.1 11.2 3.6zm10.44 35.97l4.86-21.47-26.5-18.1 21.64 39.57zM519 84.58l11.2 3.6-13.63-10.88 2.44 7.28zm.3-29.4l7.76 16.27-7.24 1.9-.5-18.18zm7.76 21.14l3.14 11.86-13.63-10.88 10.5-.98zm-18.08-11.57l4.34 1 1.4-6.62-5.74 5.62zm4.34 1l6.5 7.6-5.1-14.22-1.4 6.63zm6.5 7.6l-.5-18.18-4.6 3.96 5.1 14.2zm6.53-33.98l.7 10.82-15.4 2.6 14.7-13.43zm-7.04 15.8l7.76-4.98-15.4 2.6 7.65 2.37zm-7.64-2.38l14.7-13.43-12.62-1.4-2.08 14.82zm-3.28 5.92l3.28-5.93-8.6-.66 5.32 6.58zm5.36-20.74l-2.08 14.8-8.6-.64 10.68-14.16zm-10.67 14.16l10.67-14.16-18.52 7.33 7.85 6.84zm-7.85-6.83l7.85 6.84-5.14 16.64-2.7-23.47zm7.85 6.84l5.3 6.58-10.44 10.06 5.14-16.64zm-7.85-6.83l2.7 23.48-16.28-8.07 13.58-15.4zm2.7 23.48l5.43 5.57-5.42 5.1V68.78zM509 64.75l4.34 1-2.7 5.35-1.64-6.35zm4.34 1l6.5 7.6-9.2-2.25 2.7-5.34zm-15.4 13.7l-.43 6.43-7.83 4.44 8.26-10.87zM481.65 60.7l16.3 8.08-16.3 6.72V60.7zm8.03 29.62l8.26-10.87-16.3-3.95 8.04 14.82zm8.26-10.87V68.78l-16.3 6.72 16.3 3.95zm-16.3-18.74v14.8l-12.24-9.74 12.24-5.05zm-14.32 17.72l14.34-2.92-12.25-9.74-2.1 12.66zm0 0l14.34-2.92-6.46 4.78-7.87-1.86zm10.84 6.16l3.1-2.27-1.54 14.97-1.56-12.7zm9.73 9.6l4.3 2.73-12.47.37 8.17-3.1zm-10.8.57l1.07-10.17 1.56 12.7-2.63-2.53zm2.63 2.52l12.47-.36 5.76 13.06-18.23-12.7zm12.47-.36l16.8-4.86-11.04 17.92-5.76-13.05zm23.03 17.94l3.8-30.26-21.07 25.38 17.27 4.88zm-17.27-4.88l17.27 4.88-17.27 21v-25.88zm-22.96 36.7l2.82-2.62-2.63 9.16-.2-6.55zm52.24 22.63l-5.85-3.1 8.8.95-2.94 2.14zm-9.93-34.25l-2.07-20.2-17.27 20.98 19.34-.78zm0 0l.87 13.1-5.88 4.87 5-17.97zm3.58 22.1l-3.45 4.33-2.96-4.9 6.4.57zm-22.92-21.32l19.34-.78-9.82 5.22-9.52-4.44zm19.34-.78l-5 17.97-4.82-12.75 9.82-5.22zm-19.34-25.1v25.88l-8.26-9.37 8.26-16.5zM479.7 97.28l18.23 12.7-15.6 4.3-2.63-17zm9.97 29.2l8.26-16.5-15.6 4.3 7.34 12.2zm5.66 35.63l.9-5.5-9.62.55 8.73 4.95zm-18.26-67.35l1.07-10.17-4 1.13 2.93 9.05zm5.26 19.5l-2.63-16.98-14.43 2.78 17.06 14.2zm-5.26-19.5l2.63 2.52-14.43 2.78 11.8-5.3zm5.26 19.5l7.34 12.2-12.9 5.5 5.56-17.7zm-17.06-14.2l17.06 14.2-5.55 17.7-11.5-31.9zm0 0l11.5 31.9-11.52-13.64.02-18.25zm11.5 31.9l12.9-5.5-3.06 5.12-9.82.37zm25.52 13.6l-.1.1-4.3 3.53-1.3-6.45 5.7 2.83zm-.53 6l-3.47 5.6-.4-7.97 3.87 2.38zm-36.5-51.5l-.02 18.26-17.16-3.46 17.17-14.8zm-17.18 14.8l17.15 3.46-5.88 18.05-11.28-21.5zm-3.45 21.83l6.87 8.88-5.93 12.98-.95-21.86zM421.85 160l.75-24.17 23 22.7-23.76 1.48zm0 0l9.15 2.72 14.6-4.18-23.76 1.47zm.75-24.17l22.05.85.94 21.86-23-22.7zm22.05.85l6.87 8.88-4.37-21.4-2.5 12.52zm-8.32-20.17l11.76-1.66-.95 9.3-10.82-7.63zm15.2 29.06l7.84-9.2-12.22-12.2 4.37 21.4zm7.84-9.2l-11.28-21.52-.95 9.3 12.22 12.2zm-7.85 9.2l7.85-9.2-.77 5.96-7.08 3.24zm7.85-9.2l5.88-18.05 11.53 13.64-17.4 4.4zm17.4-4.42l9.84-.37 1.27 12.1-11.1-11.73zm9.84-.37l10 11.16-8.73.93-1.26-12.1zm11.3 17.6l-1.3-6.44-8.73.93 10.03 5.52zm-103.23-87.6l1.5-8.9 13.48 8.9h-14.98zm1.5-8.9l19.1-1.45-5.62 10.36-13.47-8.9zm24.72 2.9l-5.63-4.35-5.62 10.36 11.24-6.02zm54.27 97.63l2.62-9.16.9 8.25-3.53.9zm-20.53-46.72l1.03-5.96-11.93-4.96 10.9 10.92zm-18.3-2.58l7.4.8v-9.14l-7.4 8.34zm19.33-3.38l-10.73-12.97-1.2 8 11.93 4.97zm-19.7-14.64l7.77 9.68-2.34-13.25-5.43 3.58zm7.77 9.68l1.2-8-3.54-5.25 2.34 13.26zm4.2-12.9l-3 4.9-3.54-5.25 6.53.36zm-3.33-3.88l-5.33.67 2.13 2.86 3.2-3.52zm-20.64 19.35l5.22-6.62 4.45 10.14-9.67-3.5zm0 0l.24 7 9.43-3.5-9.67-3.5zm5.22-6.62h6.1l-1.65 10.14-4.45-10.13zm5.43 19.15l20.04-4.17-10.9-1.8-9.13 5.97zm9.14-15.1l10.9 10.93-10.9-1.8v-9.12zm-4.47-16.1l-3.3 6.43 5.43-3.57-2.13-2.85zm66.44 69.48l-4.17-.53.68-2.75.1-.1 3.4 3.38zm-3.5-3.28l-.67 2.75-3.63.78 4.3-3.53zm-.43 5.9l-3.87-2.37 3.63-.78.24 3.16zm10.5 1.47l5.87-4.87 4.55 8.26-10.44-3.38zm45.38-23.82l-6.9 2.6-3.7-4.37 10.6 1.77zm-28.3 17.23l-11.2 1.72-.88-13.1 12.1 11.38zm3.75-4.38l-17.9-27.2 25.44 9.3-7.54 17.9zM519 84.58l-10 7.46-11.05 17.92L519 84.58zm0 0l-10 7.46 3.6-10.26 6.43 2.8z" stroke="url(#a)" opacity=".25"/><circle stroke="#5B6A72" fill="#F1FCFF" cx="578" cy="322" r="9"/><circle stroke="#5B6A72" fill="#F1FCFF" cx="479" cy="115" r="9"/><path d="M523 378a9 9 0 1 0 0-18 9 9 0 0 0 0 18zm254-187a9 9 0 1 0 0-18 9 9 0 0 0 0 18z" stroke="#5B6A72" fill="#FDF4D7"/><circle stroke="#5B6A72" fill="#FDDAD3" cx="254" cy="348" r="9"/><g transform="translate(145 146)" stroke="#5B6A72"><ellipse fill="#FDF4D7" cx="9.47" cy="9.47" rx="9.03" ry="9.32"/><ellipse fill="#FDE699" cx="9.4" cy="9.46" rx="5.32" ry="5.49"/></g><g transform="translate(532 115)" stroke="#5B6A72"><circle fill="#FDDAD3" cx="9.63" cy="9.47" r="9.27"/><circle fill="#F7A696" cx="9.55" cy="9.46" r="5.49"/></g><g transform="translate(105 79)" stroke="#5B6A72"><circle fill="#FDDAD3" cx="9.63" cy="9.47" r="9.27"/><circle fill="#F7A696" cx="9.55" cy="9.46" r="5.49"/></g><g stroke="#5B6A72"><path d="M494.5 246.92c5.03 0 9.12-4 9.12-8.94 0-4.94-4.1-8.95-9.13-8.95-5.06 0-9.14 4-9.14 8.95 0 4.94 4.08 8.94 9.13 8.94z" fill="#E7E4FB"/><path d="M494.54 243.46c3.03 0 5.5-2.4 5.5-5.37a5.44 5.44 0 0 0-5.5-5.4c-3.04 0-5.5 2.42-5.5 5.4a5.44 5.44 0 0 0 5.5 5.36z" fill="#D0C8FF"/></g><g transform="translate(690 103)" stroke="#5B6A72"><circle fill="#F1FCFF" cx="9.45" cy="9.58" r="9.17"/><ellipse fill="#DCF2F9" cx="9.37" cy="9.57" rx="5.49" ry="5.49"/></g><path d="M531 446a9 9 0 1 0 0-18 9 9 0 0 0 0 18zm-291 3a9 9 0 1 0 0-18 9 9 0 0 0 0 18zm625-40a9 9 0 1 0 0-18 9 9 0 0 0 0 18z" stroke="#5B6A72" fill="#E7E4FB"/></g></svg>